<svg
  width="32"
  height="32"
  viewBox="0 0 24 24"
  fill="none"
  xmlns="http://www.w3.org/2000/svg"
>
  <path
    d="M4.5 12.5C4.5 10.9667 4.96667 9.68333 5.9 8.65C6.83333 7.61667 8.01667 7.05 9.45 6.95C10.55 5.51667 11.8833 4.5 13.45 3.9C15.0167 3.3 16.6333 3.15 18.3 3.45C19.0667 4.58333 19.5667 5.8 19.8 7.1C20.9333 7.33333 21.8333 7.91667 22.5 8.85C23.1667 9.78333 23.5 10.8 23.5 11.9C23.5 13.2333 23.0167 14.3833 22.05 15.35C21.0833 16.3167 19.9333 16.8 18.6 16.8H18V16.5C18 15.3 17.6 14.2833 16.8 13.45C16 12.6167 15.0167 12.2 13.85 12.2C13.25 12.2 12.6833 12.3333 12.15 12.6C11.6167 12.8667 11.2 13.2333 10.9 13.7C10.6 14.1667 10.45 14.6833 10.45 15.25V16.8H9C7.4 16.8 6.01667 16.2167 4.85 15.05C3.68333 13.8833 3.1 12.5 3.1 10.9C3.1 10.0333 3.33333 9.25 3.8 8.55M12 21L9 18H15L12 21Z"
    fill="hsl(142.1 76.2% 36.3%)"
  />
</svg>
